<svg width="612" height="612" viewBox="0 0 612 612" fill="none" xmlns="http://www.w3.org/2000/svg">
<path fill-rule="evenodd" clip-rule="evenodd" d="M441.418 161.264C488.783 206.235 502.013 273.301 498.536 338.506C495.203 400.987 476.59 467.441 423.337 500.277C373.799 530.822 314.386 500.942 257.895 486.887C200.725 472.663 132.369 472.049 103.489 420.699C72.8103 366.15 94.5737 299.925 120.801 243.122C148.871 182.328 185.387 119.361 250.273 102.795C318.182 85.4571 390.579 112.995 441.418 161.264Z" fill="#0093E4"/>
<g clip-path="url(#clip0_13_937)">
<path d="M335.232 138.054C337.62 137.534 340.063 138.455 342.311 139.413C385.328 157.742 418.892 196.895 430.432 242.208C441.971 287.521 431.222 337.96 402.211 374.632C373.2 411.303 326.588 433.37 279.836 432.568C278.886 437.998 277.935 443.428 276.985 448.859C276.984 444.257 276.91 439.386 274.495 435.468C272.081 431.55 266.423 429.255 262.725 431.994C257.673 438.028 261.578 448.963 269.309 450.431C267.797 453.978 261.965 452.873 260.005 449.553C258.045 446.233 258.49 442.098 258.188 438.254C257.886 434.41 256.112 429.99 252.33 429.236C241.105 426.997 230.095 423.681 219.5 419.347C212.644 416.543 204.741 411.034 206.347 403.803C207.534 398.461 213.855 395.601 219.279 396.319C224.703 397.038 229.383 400.346 233.816 403.553C236.129 395.562 238.441 387.571 240.754 379.579C233.475 379.917 231.432 369.252 225.299 365.318C197.24 347.317 178.536 315.499 176.453 282.228C174.37 248.956 188.961 215.054 214.555 193.695C240.15 172.335 276.115 164.046 308.477 172.048C312.317 167.324 319.495 165.689 325.002 168.282C330.151 165.655 329.888 158.367 329.241 152.622C328.594 146.878 329.584 139.286 335.232 138.054ZM244.423 406.103C242.304 403.755 244.384 405.143 244.384 405.143L244.423 406.367V406.927C244.423 406.927 239.285 404.938 236.817 404.133C279.022 418.39 328.138 410.096 363.321 382.771C398.505 355.446 418.698 309.912 415.333 265.492C411.967 221.071 385.143 179.099 346.244 157.388C345.316 156.87 344.277 156.346 343.239 156.571C341.905 156.861 341.148 158.235 340.562 159.468C338.609 163.575 336.657 167.682 334.704 171.789C339.304 174.49 341.762 180.39 340.44 185.558C366.763 202.241 385.094 230.985 389.118 261.889C393.143 292.793 382.786 325.272 361.614 348.142C340.442 371.011 308.856 383.837 277.733 382.202C270.439 381.819 262.583 380.809 256.298 384.53C249.031 388.832 246.421 397.898 244.423 406.103Z" fill="white"/>
<path d="M233.772 214.41C233.18 214.418 232.924 215.152 232.829 215.736C232.468 217.96 232.106 220.184 231.745 222.408C234.525 222.351 237.659 222.136 239.468 220.024C236.977 219.604 235.115 216.912 235.601 214.434C236.487 215.802 237.684 216.968 239.076 217.816C239.769 218.239 240.57 218.652 240.841 219.417C241.289 220.682 240.029 221.852 238.93 222.623C237.831 223.393 236.602 224.621 237.121 225.859C236.104 224.687 234.616 223.936 233.069 223.815C232.184 223.746 231.205 223.849 230.496 223.313C229.355 222.45 229.745 220.653 230.375 219.368C231.006 218.083 231.774 216.559 231.066 215.315C230.537 214.383 229.297 213.924 229.018 212.889C228.611 211.381 230.478 210.329 231.992 209.943C233.045 209.674 234.154 209.436 235.209 209.697C236.264 209.959 237.236 210.875 237.196 211.961C236.695 213.368 235.265 214.39 233.772 214.41ZM236.241 211.531C234.729 210.675 232.714 210.811 231.332 211.862C230.878 212.207 230.464 212.811 230.739 213.311C232.709 213.436 234.718 212.786 236.241 211.531Z" fill="black"/>
<path d="M342.999 293.806C342.334 293.543 341.743 293.094 341.312 292.523C342.918 291.822 344.235 290.483 344.909 288.866C345.338 287.837 346.874 287.819 347.797 288.443C348.721 289.068 349.297 290.088 350.137 290.821C350.977 291.554 352.376 291.921 353.146 291.115C354.043 290.175 355.786 290.933 356.243 292.15C356.699 293.367 356.298 294.719 355.896 295.955C355.662 296.673 355.407 297.425 354.848 297.933C354.29 298.44 353.325 298.586 352.809 298.035C350.781 295.873 346.734 296.224 345.109 298.703C343.484 297.724 342.594 295.66 342.999 293.806ZM345.932 290.471C344.48 291.938 343.988 294.275 344.725 296.203C344.894 296.647 345.463 297.119 345.757 296.746C347.105 295.029 349.563 294.278 351.641 294.948C352.034 295.075 352.383 294.555 352.271 294.158C352.159 293.761 351.787 293.502 351.441 293.277C349.957 292.313 348.473 291.349 346.989 290.384C346.817 290.272 346.626 290.155 346.421 290.175C346.228 290.195 346.068 290.332 345.932 290.471ZM353.923 297.464C354.528 296.073 354.939 294.597 355.138 293.092C355.183 292.76 355.019 292.26 354.708 292.388C352.872 293.238 352.429 296.099 353.923 297.464Z" fill="black"/>
<path d="M296.781 294.643C294.024 292.523 290.531 290.824 289.381 287.541C287.426 281.96 281.224 279.042 278.154 273.987C275.562 269.719 275.483 264.374 276.257 259.441C278.197 247.081 285.838 235.061 297.541 230.637C303.125 228.525 309.22 228.231 315.19 228.292C320.327 228.345 325.638 228.689 330.215 231.023C334.792 233.358 338.467 238.163 337.985 243.278C337.791 245.337 336.955 247.311 336.917 249.378C336.811 255.042 342.36 258.947 347.266 261.78C351.997 264.512 356.729 267.244 361.46 269.976C363.901 271.386 364.235 274.712 364.287 277.53C364.427 285.239 364.567 292.948 364.708 300.657C364.736 302.198 364.761 303.762 364.363 305.251C363.934 306.857 363.034 308.291 362.147 309.698C353.304 323.718 343.708 338.429 328.787 345.647C325.52 347.228 322.076 348.402 318.641 349.573C315.432 350.667 312.222 351.761 309.013 352.855C306.642 353.663 304.198 354.482 301.697 354.34C299.196 354.198 296.593 352.861 295.715 350.515C295.205 349.153 295.327 347.642 295.541 346.204C296.266 341.306 297.971 336.555 300.526 332.314C304.091 326.395 306.233 319.494 305.818 312.597C305.404 305.701 302.258 298.855 296.781 294.643ZM285.796 278.301C292.44 284.48 298.343 291.455 303.34 299.029C305.061 301.638 306.691 304.353 307.609 307.34C309.389 313.133 308.331 319.453 306.274 325.154C304.217 330.854 301.202 336.16 298.918 341.773C297.654 344.882 296.871 349.042 299.526 351.095C301.709 352.785 304.845 351.908 307.438 350.96C311.328 349.538 315.218 348.117 319.107 346.695C322.335 345.515 325.572 344.332 328.636 342.777C342.64 335.67 351.607 321.7 359.901 308.363C360.651 307.156 361.411 305.929 361.801 304.561C362.207 303.139 362.193 301.636 362.175 300.157C362.098 293.636 362.021 287.115 361.944 280.594C361.917 278.299 361.868 275.912 360.83 273.866C358.98 270.216 354.663 268.742 350.95 267.021C345.379 264.44 340.396 260.601 336.478 255.873C335.468 254.655 334.502 253.321 334.191 251.769C333.638 249.01 335.252 246.299 335.492 243.496C335.884 238.905 332.42 234.679 328.243 232.735C324.065 230.792 319.304 230.65 314.696 230.613C310.328 230.578 305.905 230.614 301.679 231.717C289.093 235.003 280.481 247.551 278.633 260.426C278.109 264.079 278.07 267.965 279.703 271.274C281.083 274.071 283.512 276.177 285.796 278.301Z" fill="black"/>
<path d="M225.203 472.983C230.112 475.968 235.945 476.958 241.632 477.772C250.679 479.066 259.77 480.06 268.883 480.751C280.623 481.64 293.12 481.862 303.331 476.001C304.085 475.568 304.855 475.07 305.268 474.304C306.521 471.977 303.661 469.458 301.06 468.993C298.459 468.528 295.452 468.795 293.551 466.959C297.38 465.057 302.198 465.319 305.798 467.624C309.398 469.929 311.652 474.196 311.527 478.469C311.424 481.972 309.849 485.345 310.013 488.846C310.211 493.117 305.858 496.081 301.884 497.659C289.254 502.674 275.282 502.803 261.693 502.604C249.654 502.427 237.15 501.931 226.451 496.407C223.761 495.018 221.132 493.228 219.645 490.59C218.309 488.223 218.03 485.425 217.778 482.718C217.271 477.275 216.952 471.189 220.458 466.995C223.801 462.996 229.511 462.088 234.71 461.712C237.22 461.531 238.103 458.198 237.644 455.724C237.186 453.249 236.093 450.612 237.17 448.338C239.321 443.796 246.791 446.029 250.631 442.788C251.906 441.712 253.954 443.627 253.459 445.22C252.964 446.812 251.092 447.557 249.424 447.588C247.757 447.62 246.096 447.161 244.435 447.313C242.775 447.465 240.983 448.526 240.842 450.188C256.151 456.331 273.436 457.429 289.399 453.272C286.651 449.908 282.25 447.965 277.914 448.2C277.984 447.13 279.181 446.525 280.236 446.33C285.014 445.446 289.934 448.789 291.764 453.291C293.594 457.793 292.737 463.056 290.455 467.346C288.38 466.7 288.544 463.767 288.879 461.62C289.214 459.473 288.331 456.372 286.197 456.785C271.616 459.61 256.295 458.513 242.265 453.64C241.194 453.268 240.513 454.774 240.383 455.9C239.894 460.11 239.644 465.012 242.756 467.889C244.283 469.302 246.361 469.93 248.378 470.44C259.342 473.208 270.873 473.708 282.035 471.898C283.597 471.645 285.587 471.538 286.35 472.925C277.893 476.76 268.147 475.887 258.91 474.938C254.544 474.49 250.091 474.019 246.088 472.22C242.184 470.466 238.88 467.522 234.889 465.977C230.898 464.432 225.55 464.834 223.374 468.519C223.134 468.925 222.938 469.37 222.904 469.841C222.806 471.205 224.034 472.272 225.203 472.983ZM307.386 489.834C309.164 485.859 307.527 481.299 307.002 476.977C294.874 485.26 278.925 484.544 264.319 483.012C255.85 482.124 247.399 481.069 238.973 479.848C233.508 479.057 227.768 478.073 223.496 474.574C222.349 473.635 221.074 475.603 220.884 477.073C220.332 481.348 219.852 485.999 222.073 489.694C224.508 493.745 229.452 495.431 234.042 496.563C254.24 501.544 275.618 501.67 295.874 496.93C300.43 495.863 305.476 494.105 307.386 489.834Z" fill="black"/>
<path d="M332.348 137.238C334.735 136.718 337.179 137.639 339.426 138.597C382.444 156.926 416.008 196.079 427.547 241.392C439.087 286.706 428.338 337.144 399.327 373.816C370.315 410.487 323.704 432.554 276.952 431.752C276.001 437.182 275.051 442.613 274.101 448.043C274.099 443.441 274.026 438.57 271.611 434.652C269.197 430.734 263.539 428.439 259.841 431.178C254.788 437.212 258.693 448.147 266.425 449.615C264.913 453.162 259.081 452.057 257.121 448.737C255.161 445.417 255.606 441.282 255.303 437.438C255.001 433.594 253.227 429.174 249.446 428.42C238.221 426.181 227.21 422.865 216.616 418.531C209.759 415.727 201.856 410.218 203.463 402.987C204.65 397.645 210.97 394.785 216.395 395.503C221.819 396.222 226.498 399.53 230.932 402.737C233.244 394.746 235.557 386.755 237.869 378.763C230.591 379.101 228.548 368.436 222.415 364.502C194.356 346.501 175.651 314.683 173.569 281.412C171.486 248.14 186.076 214.238 211.671 192.879C237.265 171.519 273.231 163.23 305.593 171.232C309.433 166.508 316.611 164.873 322.118 167.466C327.267 164.839 327.004 157.551 326.357 151.806C325.71 146.062 326.7 138.47 332.348 137.238V137.238ZM377.454 311.291C390.069 278.141 384.138 238.597 362.352 210.606C360.774 208.579 358.991 206.518 356.554 205.704C351.048 203.863 345.543 202.023 340.037 200.183C340.635 202.505 338.777 204.888 336.535 205.737C334.293 206.586 331.801 206.298 329.423 205.996C325.186 205.456 320.813 204.862 317.155 202.658C313.496 200.455 310.723 196.19 311.608 192.012C312.316 188.674 308.225 186.535 304.938 185.619C296.358 183.227 287.778 180.835 279.198 178.443C277.327 177.922 275.326 177.316 274.131 175.786C272.936 174.255 273.171 171.51 275.011 170.888C260.632 171.272 246.351 174.965 233.588 181.601C243.763 186.875 254.131 192.29 262.096 200.529C268.344 206.992 273.04 215.654 272.283 224.61C271.626 232.37 266.894 239.388 260.73 244.148C254.567 248.909 247.075 251.646 239.522 253.545C228.378 256.346 214.878 256.787 207.211 248.229C204.98 245.739 200.994 246.384 197.761 247.234C192.306 248.669 186.852 250.103 181.397 251.537C180.127 251.871 178.589 252.52 178.546 253.832C178.415 257.813 181.365 261.682 185.238 262.609C189.111 263.537 193.494 261.424 195.18 257.815C196.196 255.642 199.258 255.302 201.502 256.153C203.745 257.005 205.602 258.673 207.834 259.555C211.371 260.951 215.523 260.251 218.944 261.912C224.65 264.682 225.623 272.454 224.534 278.703C222.514 290.301 215.938 301.043 206.527 308.117C200.352 312.759 201.424 322.381 204.532 329.454C207.639 336.527 212.261 343.639 211.182 351.289C206.944 342.427 203.355 333.256 200.454 323.872C198.854 318.695 197.938 311.976 202.351 308.832C211.727 302.152 218.684 292.149 221.684 281.035C223.483 274.373 222.588 265.275 215.985 263.273C213.425 262.496 210.595 263.073 208.053 262.241C205.924 261.544 204.219 259.932 202.175 259.016C200.131 258.1 197.253 258.179 196.175 260.142C192.5 266.83 181.221 267.103 177.226 260.602C172.587 293.726 185.134 328.789 209.735 351.451C234.335 374.112 270.309 383.744 302.942 376.406C335.574 369.069 363.963 344.966 376.495 313.955C373.013 312.403 371.041 308.554 370.531 304.776C370.022 300.997 370.701 297.175 371.078 293.381C371.836 285.751 371.36 278 369.676 270.519C369.223 268.508 368.335 266.166 366.315 265.749C360.254 264.498 354.503 261.773 349.694 257.877C346.042 254.917 342.976 249.05 346.53 245.973C348.186 244.539 345.836 242.177 344.98 240.161C343.173 235.905 348.707 232.409 353.13 231.059C358.316 229.477 363.501 227.895 368.687 226.313C369.247 226.142 369.84 225.97 370.409 226.109C372.062 226.512 371.946 229.182 370.555 230.162C369.164 231.142 367.308 230.983 365.606 230.943C358.84 230.782 352.045 233.258 346.968 237.735C349.226 240.232 349.808 244.112 348.381 247.161C346.663 250.832 349.101 255.287 352.472 257.537C355.844 259.787 359.957 260.555 363.741 262.008C367.525 263.461 371.339 266.044 372.255 269.992C374.111 277.992 374.515 286.326 373.441 294.467C372.631 300.612 371.872 308.597 377.454 311.291ZM241.539 405.287C239.419 402.939 239.943 399.216 241.264 396.343C242.586 393.469 244.582 390.838 245.141 387.725C245.7 384.612 244.013 380.728 240.86 380.486C238.551 388.096 236.242 395.707 233.933 403.317C276.138 417.574 325.253 409.28 360.437 381.955C395.621 354.63 415.814 309.096 412.448 264.676C409.083 220.255 382.259 178.283 343.36 156.572C342.432 156.054 341.393 155.53 340.355 155.755C339.021 156.045 338.264 157.419 337.678 158.652C335.725 162.759 333.773 166.866 331.82 170.973C336.42 173.674 338.877 179.574 337.556 184.742C363.879 201.425 382.209 230.169 386.234 261.073C390.259 291.977 379.902 324.456 358.73 347.326C337.557 370.195 305.971 383.021 274.849 381.386C267.555 381.003 259.699 379.993 253.414 383.714C246.147 388.016 243.537 397.082 241.539 405.287H241.539ZM340.907 142.196C338.507 141.126 335.896 140.098 333.318 140.609C330.74 141.12 328.45 143.851 329.389 146.306C374.581 164.756 408.316 208.715 414.447 257.141C420.577 305.567 398.86 356.547 359.692 385.676C320.523 414.805 265.451 420.932 220.837 401.126C216.504 399.202 210.589 397.403 207.73 401.185C205.971 403.513 206.56 406.993 208.335 409.31C210.109 411.627 212.798 413.034 215.433 414.289C263.025 436.969 322.645 432.004 365.83 401.763C409.015 371.522 434.068 317.194 429.029 264.715C423.99 212.236 389.057 163.667 340.907 142.196ZM180.426 249.433C185.979 247.917 191.532 246.401 197.085 244.885C200.915 243.839 205.658 243.037 208.303 245.998C212.575 250.779 219.19 252.966 225.6 253.088C232.01 253.209 238.305 251.483 244.403 249.502C252.714 246.802 261.568 242.993 265.546 235.212C267.884 230.639 270.286 225.781 269.968 220.655C269.676 215.93 267.111 211.689 264.619 207.664C262.525 204.282 260.377 200.837 257.317 198.295C252.096 193.958 244.721 192.666 239.95 187.838C237.192 185.047 232.812 184.367 228.986 185.235C225.16 186.104 221.778 188.298 218.621 190.628C200.521 203.982 186.879 223.274 180.321 244.79C179.852 246.33 179.46 248.145 180.426 249.433ZM338.052 199.233C339.825 196.685 343.827 197.572 346.467 199.204C349.108 200.835 351.952 203.044 354.959 202.273C338.538 185.617 316.54 174.557 293.377 171.31C287.381 170.469 280.506 170.416 276.196 174.669C286.982 177.904 297.768 181.139 308.553 184.374C309.972 184.8 311.47 185.275 312.442 186.393C314.151 188.359 313.54 191.346 314.015 193.907C314.699 197.598 317.8 200.471 321.265 201.914C324.731 203.358 328.557 203.614 332.304 203.853C333.606 203.936 335.057 203.972 336.041 203.114C337.149 202.148 337.212 200.44 338.052 199.233ZM334.777 182.885C335.785 180.681 334.877 177.976 333.203 176.223C331.529 174.47 329.233 173.473 326.983 172.571C323.039 170.989 318.947 169.546 314.699 169.431C313.634 169.403 312.463 169.501 311.698 170.243C310.934 170.985 311.005 172.564 312.024 172.872C319.975 175.277 327.633 178.647 334.777 182.885ZM257.274 378.859C249.543 377.417 242.017 374.875 234.996 371.332C234.415 371.039 233.797 370.731 233.149 370.792C232.502 370.853 231.862 371.459 232.026 372.088C232.137 372.515 232.55 372.78 232.93 373.004C236.967 375.377 241.038 377.766 245.466 379.286C249.895 380.806 254.763 381.415 259.273 380.158C259.122 379.323 258.108 379.015 257.274 378.859ZM335.342 152.158C334.735 151.269 333.312 151.333 332.471 152.004C331.629 152.676 331.224 153.74 330.856 154.752C329.317 158.981 327.778 163.21 326.239 167.44C326.097 167.828 325.954 168.234 325.999 168.645C326.132 169.838 327.827 170.271 328.854 169.649C329.882 169.027 330.37 167.82 330.791 166.696C332.27 162.751 333.749 158.807 335.228 154.862C335.558 153.982 335.872 152.934 335.342 152.158V152.158Z" fill="black"/>
</g>
<defs>
<clipPath id="clip0_13_937">
<rect width="365.568" height="365.568" fill="white" transform="translate(119.952 137.088)"/>
</clipPath>
</defs>
</svg>
